PathFileType  4	(X/Y/Z) C:\Users\antoi\Documents\MyRepositories\mobilecap\ResultsAnalysis
DataRate	CameraRate	NumFrames	NumMarkers	Units	OrigDataRate	OrigDataStartFrame	OrigNumFrames
100.0	100.0	4	51	mm	100.0	175	1394
Frame#	Time	r_knee			r_shank_antsup			r_ankle			r_calc			r_5meta			r_toe			L_knee			L_shank_antsup			L_ankle			L_calc			L_5meta			L_toe			r_sh2			r_sh3			r_sh4			L_sh2			L_sh3			r_thigh1			r_thigh2			r_thigh3			r_thigh4			r_thigh5			L_thigh1			L_thigh2			L_thigh3			L_thigh4			r.ASIS			r.PSIS			L.ASIS			L.PSIS			C7			R_Shoulder			L_Shoulder			R_Sternum			L_Sternum			R_humerus			R_elbow_med			R_elbow_lat			R_forearm			R_wrist_radius			R_wrist_ulna			L_humerus			L_elbow_med			L_elbow_lat			L_forearm			L_wrist_radius			L_wrist_ulna			R_HJC			L_HJC			R_HJC_reg			L_HJC_reg			
		X1	Y1	Z1	X2	Y2	Z2	X3	Y3	Z3	X4	Y4	Z4	X5	Y5	Z5	X6	Y6	Z6	X7	Y7	Z7	X8	Y8	Z8	X9	Y9	Z9	X10	Y10	Z10	X11	Y11	Z11	X12	Y12	Z12	X13	Y13	Z13	X14	Y14	Z14	X15	Y15	Z15	X16	Y16	Z16	X17	Y17	Z17	X18	Y18	Z18	X19	Y19	Z19	X20	Y20	Z20	X21	Y21	Z21	X22	Y22	Z22	X23	Y23	Z23	X24	Y24	Z24	X25	Y25	Z25	X26	Y26	Z26	X27	Y27	Z27	X28	Y28	Z28	X29	Y29	Z29	X30	Y30	Z30	X31	Y31	Z31	X32	Y32	Z32	X33	Y33	Z33	X34	Y34	Z34	X35	Y35	Z35	X36	Y36	Z36	X37	Y37	Z37	X38	Y38	Z38	X39	Y39	Z39	X40	Y40	Z40	X41	Y41	Z41	X42	Y42	Z42	X43	Y43	Z43	X44	Y44	Z44	X45	Y45	Z45	X46	Y46	Z46	X47	Y47	Z47	X48	Y48	Z48	X49	Y49	Z49	X50	Y50	Z50	X51	Y51	Z51	

175	1.74000000	-206.11383	496.41859	-424.63426	-171.11852	430.58348	-445.91730	-258.92137	94.72149	-462.80560	-331.59124	63.96523	-496.56280	-158.30558	45.35738	-430.12492	-110.93775	67.06377	-489.11416	-249.75416	503.35355	-782.14257	-214.42160	419.49266	-818.28336	-269.21517	106.16759	-864.89226	-326.95159	57.50455	-827.00031	-157.62223	63.65504	-914.58757	-118.42850	97.62656	-865.40559	-196.82680	318.35551	-427.89860	-244.04025	443.57572	-410.72351	-266.43157	331.20970	-413.92973	-302.11094	427.17157	-801.11211	-307.36665	309.75476	-839.08985	-154.75338	816.56077	-387.52256	-153.50045	705.42674	-396.29844	-203.29532	677.61454	-361.64570	-263.00080	810.28347	-352.77271	-257.22329	693.23244	-365.69651	-265.56291	770.92944	-772.59666	-237.62303	636.39780	-781.10789	-356.31772	746.45605	-703.10222	-328.36058	610.82859	-729.78905	-148.39267	965.21415	-438.01023	-337.98270	1032.92868	-485.78658	-193.33529	936.03723	-684.83930	-361.09787	1027.82086	-582.37395	-253.57413	1425.16592	-539.02758	-149.74468	1381.82408	-384.37355	-205.38150	1403.80583	-719.54809	-117.24765	1368.74612	-536.03668	-117.44945	1371.89895	-574.53865	-136.44492	1259.49339	-309.01352	-173.99524	1039.75705	-319.62900	-137.23994	1068.44158	-252.65426	-40.03604	1129.31895	-329.50200	38.03805	1184.39318	-411.79769	60.41914	1158.13873	-417.12350	-213.14474	1300.20430	-796.68285	-247.79070	1063.84551	-776.10066	-251.61489	1104.67889	-851.60376	-157.53983	1150.65605	-828.33513	-21.19437	1196.34258	-795.67089	-6.61016	1169.47342	-810.61882	-239.11472	899.42810	-438.63168	-278.99939	881.76933	-640.44249	-232.99902	897.43287	-450.40775	-271.74701	888.87037	-612.31716	
176	1.75000000	-206.02306	496.44359	-424.71548	-170.97597	430.53236	-446.01538	-258.87769	94.84426	-462.76052	-331.69426	63.95045	-496.68359	-158.30960	45.44655	-430.15958	-110.93683	67.12809	-489.16222	-249.66490	503.99351	-783.45001	-214.49611	419.53337	-818.84381	-269.26870	106.10768	-864.89119	-326.96990	57.50414	-827.00991	-157.60566	63.57835	-914.69777	-118.48160	97.67213	-865.55166	-196.80052	318.31513	-427.94707	-243.87224	443.52819	-411.03132	-266.44126	331.20743	-414.19646	-302.20368	427.16510	-801.41353	-307.46383	309.76518	-839.32194	-155.81311	816.64563	-387.79544	-154.25539	705.61399	-396.47152	-203.94763	677.48661	-362.00338	-264.13086	809.96520	-353.20228	-257.85564	693.03809	-366.03943	-266.29368	771.00142	-773.28880	-238.05863	636.39835	-781.58783	-357.11795	746.08024	-703.55709	-328.79916	610.67856	-730.52002	-149.59368	964.93460	-438.31666	-338.88534	1033.02813	-486.33161	-194.22863	935.89153	-685.17607	-362.00260	1028.04343	-582.96743	-253.43041	1425.12152	-539.61458	-149.84075	1381.63172	-385.01538	-205.14507	1403.57079	-719.99467	-117.28236	1368.37010	-536.68935	-117.51895	1371.53543	-575.00084	-136.76615	1259.38462	-309.44706	-174.09461	1039.47449	-320.01103	-137.37658	1068.39160	-253.02373	-40.22273	1129.09867	-329.83588	37.88727	1184.08286	-412.22559	60.32953	1157.85955	-417.56587	-212.88052	1300.10328	-797.34641	-247.56729	1063.70693	-776.66360	-251.25918	1104.52317	-852.15156	-157.13829	1150.56817	-828.84487	-20.92707	1196.10045	-795.67982	-6.27842	1169.21605	-810.62298	-240.43687	899.33724	-439.06496	-280.08125	881.80113	-640.93379	-234.18559	897.28863	-450.79659	-272.91482	888.93746	-612.69427	
177	1.76000000	-205.78430	496.45302	-424.88393	-170.68254	430.50725	-446.15163	-258.78801	95.05117	-462.70654	-331.73936	63.98796	-496.75547	-158.30065	45.49781	-430.18171	-110.92711	67.16545	-489.19542	-249.76694	503.97473	-783.89197	-214.48378	419.52404	-819.37793	-269.32181	106.04962	-864.88755	-326.98997	57.49866	-827.02423	-157.66600	63.66014	-914.91160	-118.53746	97.71415	-865.61213	-196.58240	318.33797	-428.04040	-243.80324	443.46337	-411.73749	-266.98987	332.75909	-413.42944	-302.22471	427.17536	-801.64774	-307.54189	309.74300	-839.58250	-156.91102	816.67570	-388.14031	-155.06245	705.55770	-396.32173	-204.49584	677.44993	-362.26189	-265.25322	809.62262	-353.53846	-258.41265	692.78885	-366.40284	-267.07604	771.02123	-773.97380	-238.46206	636.41106	-782.05534	-357.89050	745.79760	-704.06756	-329.18288	610.49220	-731.15438	-150.91922	964.53377	-438.65222	-339.91814	1033.13324	-486.99815	-195.17812	935.73265	-685.54777	-362.95687	1028.23405	-583.56237	-253.32213	1425.04541	-540.31095	-149.85460	1381.42806	-385.63822	-204.86693	1403.34306	-720.54826	-117.27264	1367.98610	-537.23870	-117.58253	1371.05510	-575.70478	-137.00890	1259.26555	-309.86912	-174.13416	1039.29167	-320.34353	-137.55118	1068.34609	-253.28081	-40.38159	1128.98944	-330.16529	37.81399	1183.74335	-412.73674	60.24342	1157.53085	-418.02878	-212.66861	1299.87612	-797.89908	-247.32665	1063.46276	-777.66725	-250.87910	1104.39275	-853.06852	-156.74178	1150.34474	-829.21941	-20.63958	1195.82184	-795.85439	-5.93012	1168.98251	-810.81880	-241.91062	899.17188	-439.56343	-281.25599	881.82335	-641.50701	-235.55894	897.19060	-451.22523	-274.18346	888.97707	-613.11510	
178	1.77000000	-205.35801	496.34458	-425.23327	-170.18068	430.43763	-446.39990	-258.69048	95.20403	-462.65900	-331.65994	64.00385	-496.65255	-158.30479	45.47984	-430.18173	-110.92080	67.16143	-489.19854	-249.97890	503.36113	-783.57086	-214.37985	419.47487	-819.72338	-269.36241	105.99342	-864.87203	-327.01348	57.48662	-827.03513	-157.72204	63.71844	-915.03095	-118.57420	97.75317	-865.66424	-196.14017	318.28197	-428.25645	-243.44870	443.54061	-412.19532	-267.62327	334.86987	-412.38482	-302.08478	427.21600	-801.95450	-307.55000	309.70733	-839.82803	-158.04855	816.74902	-388.55390	-155.56008	705.75931	-396.50991	-204.98135	677.37713	-362.54030	-266.40487	809.23485	-353.88831	-258.99181	692.49174	-366.79644	-267.85010	771.02443	-774.66031	-238.84180	636.40899	-782.50620	-358.63288	745.64081	-704.89124	-329.50947	610.30905	-731.73655	-152.35903	964.06697	-438.93673	-341.11138	1033.18325	-487.63898	-196.20458	935.59498	-685.93683	-363.99877	1028.37393	-584.10583	-253.14534	1424.91304	-541.09409	-149.82631	1381.17118	-386.24719	-204.47723	1403.06835	-721.32133	-117.28179	1367.54958	-537.75017	-117.55053	1370.53681	-576.41008	-137.13283	1259.17046	-310.25743	-174.26491	1039.19398	-320.65456	-137.75261	1068.22125	-253.61942	-40.46497	1128.90072	-330.53156	37.75604	1183.45287	-413.25158	60.17552	1157.20222	-418.48639	-212.47376	1299.57304	-798.48784	-246.95457	1063.02649	-779.09573	-250.41996	1104.30135	-854.28124	-156.38969	1150.07609	-829.65177	-20.32586	1195.52219	-796.13627	-5.58614	1168.81651	-811.19247	-243.49661	898.92978	-440.06801	-282.50862	881.84193	-642.09845	-237.09562	897.04114	-451.66137	-275.51708	888.96761	-613.60151	
